@startuml


struct Node {
 + val : Int
 + next : Node*
}
struct ChainedList
{
 + size : Int
 + first : Node*
 + curr : Node*
 - createList(int val) : List*
 - isListEmpty(List *c) : Int
 - addFirst(List *c, Int val)
 - displayList(List *c)
 - removeFisrt(List *c)
 - addLast(List *c, Int val)
 - removeLast(List *c)
 - removeElement(List *c, Int val)
}

struct user
{
 + name : String
 + password : String
 + role : RoleEnum
 + next : struct user*
 + ad : struct sockaddr_in
 + socket_fd : Int
 + authenticated : Boolean
 + registered_users : User*
 + users_mutex : pthread_mutex_t
 - findUserByame(const char *name) : User*
 - findUserBySocket(int sock) : User*
 - getRoleByName(const char *name) : RoleEnum
 - stringRole(const char *roleStr) : RoleEnum
 - loadUsersFromJson(const char *filename)
 - saveUsersToJson(const char *filename)
 - registerUser(const char *username, const char *password, int socketFd, struct sockaddr_in addr)
}


struct client
{
 --
 + main()
 - receiveMessage(void *socketPtr)
 - uploadFile(Int socketFd,const char *filename) 
 - createDirectory(const char *dir)
 - downloadFile(Int socketFd, const char *filename)
}

struct server
{
 - TCP
 - multi-threading
 - client_sockets : List*
 - clients_mutex : pthread_mutex_t
 - shouldShitdown : int*
 --
 + main()
 + sendAllClients(const char* message)
 + send_clients(int socket_fd, const char *message)
 + remove_client(int socket_fd)
 + add_client(int socket_fd)
 + handle_client(void *arg) : void*
 + sendFileContent(int clint, const char *filename)
 + upload(int socketFd, const char *filename)
 + download(int socketFd, const char *input)
 + create_directory(const char *dir)
 + handle_login(int client_socket)
}

struct Channel
{
 - name : char*;
 - int maxSize : int;
 - clients : List*
 - next : Channel*
 --
 + void initChannelSystem();
 + void cleanupChannelSystem();
 + char *getUserChannelName(User *user);
 + Channel *getUserChannel(User *user);
 + void addUserToChannel(char *name, User *user);
 + void removeUserFromChannel(char *name, User *user);
 + bool userLeaveChannel(User *user, char *response, size_t responseSize);
 + bool userCreateAndJoinChannel(char *name, int maxSize, User *user, char *response, size_t responseSize);
 + bool userJoinChannel(char *name, User *user, char *response, size_t responseSize);
 + void sendUserChannelMessage(User *user, const char *message);
 + void sendToAllUserChannelMembers(User *user, const char *message);
 + void sendToAllNamedChannelMembersExceptUser(char *name, const char *message, User *user);
 + void sendToAllNamedChannelMembers(char *name, const char *message);
 + void sendInfoToAll(char *message);
 + void sendInfoToAllExceptUser(User *user, char *message);
 + bool registerUserInHub(User *user);
 + void disconnectUserFromAllChannels(User *user);
 + User *findUserBySocketId(int socketId);
 + bool getUsersInChannel(char *channelName, char *result, size_t size);
 + bool listAllChannels(char *result, size_t size);
 + void lockChannelList();
 + void unlockChannelList();
 + void removeChannel(char *name);
 + Channel *createChannel(char *name, int maxSize, User *user);
}

struct ChannelList
{
 - fisrt : Channel*;
 - pthread_mutex_t : mutex;
}



enum RoleEnum
{
 USER
 MODERATOR
 ADMINISTRATOR
}

enum CommandEnum
{
 COMMAND
 PING
 MSG
 CONNECT
 HELP
 CREDITS 
 SHUTDOWN
 UPLOAD
 DOWNLOAD
 JOIN 
 CREATE 
 LEAVE
}

struct file {
 + fp : File*
 + filename* : const char*
 + mode : const char*
 --
 - FileHandler open_file(const char *filename, const char *mode);
 - void close_file(FileHandler *file);
 - int write_file(FileHandler *file, const char *line);
 - int read_file(FileHandler *file, char *buffer, size_t size);
 - int user_exists(FileHandler *file, const char *pseudo);
 - void save_user(const char *pseudo, const char *mdp);
 - bool save_channels(const char *filename);
 - bool load_channels(const char *filename);
}

struct command {
 - privateMessage(int senderSock, const char *username, const char *msg)
 + parseCommand(const char *msg)
 + executeCommand(int sock, char* msg, int *shouldShutDown)
}

ChannelList -- Channel
Channel -- user
Node -- ChainedList
command -- ChainedList
command -- CommandEnum
server -- command
server -- user
user -- ChainedList
user -- command
user -- RoleEnum
file -- Channel

@enduml